<mxfile host="Electron" modified="2024-03-19T09:44:07.691Z" agent="Mozilla/5.0 (Windows NT 10.0; Win64; x64) AppleWebKit/537.36 (KHTML, like Gecko) draw.io/23.1.5 Chrome/120.0.6099.109 Electron/28.1.0 Safari/537.36" etag="vNp0QvfQdVPIno1-1iSn" version="23.1.5" type="device">
  <diagram name="‫עמוד-1‬" id="0Vbz9beY4PxRcJRFy-5F">
    <mxGraphModel dx="631" dy="436" grid="1" gridSize="10" guides="1" tooltips="1" connect="1" arrows="1" fold="1" page="1" pageScale="1" pageWidth="827" pageHeight="1169" math="0" shadow="0">
      <root>
        <mxCell id="0" />
        <mxCell id="1" parent="0" />
        <mxCell id="gEE5pIaVXO3cKd25DTxM-1" value="P48" style="text;html=1;align=center;verticalAlign=middle;whiteSpace=wrap;rounded=0;" parent="1" vertex="1">
          <mxGeometry x="354" y="10" width="60" height="30" as="geometry" />
        </mxCell>
        <mxCell id="gEE5pIaVXO3cKd25DTxM-2" value="start" style="strokeWidth=2;html=1;shape=mxgraph.flowchart.terminator;whiteSpace=wrap;" parent="1" vertex="1">
          <mxGeometry x="334" y="90" width="100" height="60" as="geometry" />
        </mxCell>
        <mxCell id="gEE5pIaVXO3cKd25DTxM-4" value="no&#39; 1" style="text;html=1;align=center;verticalAlign=middle;whiteSpace=wrap;rounded=0;" parent="1" vertex="1">
          <mxGeometry x="354" y="50" width="60" height="30" as="geometry" />
        </mxCell>
        <mxCell id="gEE5pIaVXO3cKd25DTxM-7" value="NumOfGames=3" style="rounded=0;whiteSpace=wrap;html=1;" parent="1" vertex="1">
          <mxGeometry x="324" y="170" width="120" height="60" as="geometry" />
        </mxCell>
        <mxCell id="gEE5pIaVXO3cKd25DTxM-14" value="" style="edgeStyle=orthogonalEdgeStyle;rounded=0;orthogonalLoop=1;jettySize=auto;html=1;" parent="1" source="gEE5pIaVXO3cKd25DTxM-8" target="gEE5pIaVXO3cKd25DTxM-9" edge="1">
          <mxGeometry relative="1" as="geometry" />
        </mxCell>
        <mxCell id="gEE5pIaVXO3cKd25DTxM-8" value="ScoreCalculation" style="shape=hexagon;perimeter=hexagonPerimeter2;whiteSpace=wrap;html=1;fixedSize=1;" parent="1" vertex="1">
          <mxGeometry x="324" y="250" width="120" height="80" as="geometry" />
        </mxCell>
        <mxCell id="gEE5pIaVXO3cKd25DTxM-16" value="" style="edgeStyle=orthogonalEdgeStyle;rounded=0;orthogonalLoop=1;jettySize=auto;html=1;exitX=0.505;exitY=0.836;exitDx=0;exitDy=0;exitPerimeter=0;" parent="1" source="gEE5pIaVXO3cKd25DTxM-9" target="gEE5pIaVXO3cKd25DTxM-10" edge="1">
          <mxGeometry relative="1" as="geometry">
            <Array as="points" />
          </mxGeometry>
        </mxCell>
        <mxCell id="gEE5pIaVXO3cKd25DTxM-9" value="&quot;Maccabi Tel Aviv&#39;s score is &quot;+Score" style="shape=document;whiteSpace=wrap;html=1;boundedLbl=1;" parent="1" vertex="1">
          <mxGeometry x="324" y="350" width="120" height="80" as="geometry" />
        </mxCell>
        <mxCell id="gEE5pIaVXO3cKd25DTxM-10" value="end" style="strokeWidth=2;html=1;shape=mxgraph.flowchart.terminator;whiteSpace=wrap;" parent="1" vertex="1">
          <mxGeometry x="334" y="450" width="100" height="60" as="geometry" />
        </mxCell>
        <mxCell id="gEE5pIaVXO3cKd25DTxM-11" value="" style="endArrow=classic;html=1;rounded=0;" parent="1" source="gEE5pIaVXO3cKd25DTxM-2" target="gEE5pIaVXO3cKd25DTxM-7" edge="1">
          <mxGeometry width="50" height="50" relative="1" as="geometry">
            <mxPoint x="320" y="320" as="sourcePoint" />
            <mxPoint x="370" y="270" as="targetPoint" />
          </mxGeometry>
        </mxCell>
        <mxCell id="gEE5pIaVXO3cKd25DTxM-12" value="" style="endArrow=classic;html=1;rounded=0;" parent="1" source="gEE5pIaVXO3cKd25DTxM-7" target="gEE5pIaVXO3cKd25DTxM-8" edge="1">
          <mxGeometry width="50" height="50" relative="1" as="geometry">
            <mxPoint x="320" y="320" as="sourcePoint" />
            <mxPoint x="370" y="270" as="targetPoint" />
          </mxGeometry>
        </mxCell>
        <mxCell id="gEE5pIaVXO3cKd25DTxM-17" value="ScoreCalculation&lt;br&gt;NumOfGames" style="strokeWidth=2;html=1;shape=mxgraph.flowchart.terminator;whiteSpace=wrap;" parent="1" vertex="1">
          <mxGeometry x="334" y="530" width="100" height="60" as="geometry" />
        </mxCell>
        <mxCell id="gEE5pIaVXO3cKd25DTxM-32" value="Score=0" style="rounded=0;whiteSpace=wrap;html=1;" parent="1" vertex="1">
          <mxGeometry x="324" y="610" width="120" height="60" as="geometry" />
        </mxCell>
        <mxCell id="gEE5pIaVXO3cKd25DTxM-33" value="" style="endArrow=classic;html=1;rounded=0;" parent="1" source="gEE5pIaVXO3cKd25DTxM-17" target="gEE5pIaVXO3cKd25DTxM-32" edge="1">
          <mxGeometry width="50" height="50" relative="1" as="geometry">
            <mxPoint x="300" y="660" as="sourcePoint" />
            <mxPoint x="350" y="610" as="targetPoint" />
          </mxGeometry>
        </mxCell>
        <mxCell id="gEE5pIaVXO3cKd25DTxM-34" value="" style="endArrow=classic;html=1;rounded=0;" parent="1" source="gEE5pIaVXO3cKd25DTxM-32" target="gEE5pIaVXO3cKd25DTxM-18" edge="1">
          <mxGeometry width="50" height="50" relative="1" as="geometry">
            <mxPoint x="300" y="660" as="sourcePoint" />
            <mxPoint x="350" y="610" as="targetPoint" />
          </mxGeometry>
        </mxCell>
        <mxCell id="gEE5pIaVXO3cKd25DTxM-18" value="" style="verticalLabelPosition=bottom;verticalAlign=top;html=1;shape=mxgraph.flowchart.or;" parent="1" vertex="1">
          <mxGeometry x="310.5" y="700" width="147" height="140" as="geometry" />
        </mxCell>
        <mxCell id="gEE5pIaVXO3cKd25DTxM-19" value="Index" style="text;html=1;align=center;verticalAlign=middle;whiteSpace=wrap;rounded=0;" parent="1" vertex="1">
          <mxGeometry x="354" y="700" width="60" height="30" as="geometry" />
        </mxCell>
        <mxCell id="gEE5pIaVXO3cKd25DTxM-20" value="Indx&amp;lt;=&lt;br style=&quot;font-size: 9px;&quot;&gt;NumOfGames" style="text;html=1;align=center;verticalAlign=middle;whiteSpace=wrap;rounded=0;fontSize=9;" parent="1" vertex="1">
          <mxGeometry x="397.5" y="755" width="60" height="30" as="geometry" />
        </mxCell>
        <mxCell id="gEE5pIaVXO3cKd25DTxM-21" value="1" style="text;html=1;align=center;verticalAlign=middle;whiteSpace=wrap;rounded=0;" parent="1" vertex="1">
          <mxGeometry x="354" y="800" width="60" height="30" as="geometry" />
        </mxCell>
        <mxCell id="gEE5pIaVXO3cKd25DTxM-23" value="1" style="text;html=1;align=center;verticalAlign=middle;whiteSpace=wrap;rounded=0;" parent="1" vertex="1">
          <mxGeometry x="310.5" y="755" width="60" height="30" as="geometry" />
        </mxCell>
        <mxCell id="gEE5pIaVXO3cKd25DTxM-37" value="" style="verticalLabelPosition=bottom;verticalAlign=top;html=1;shape=card;whiteSpace=wrap;size=20;arcSize=12;" parent="1" vertex="1">
          <mxGeometry x="334" y="860" width="100" height="60" as="geometry" />
        </mxCell>
        <mxCell id="gEE5pIaVXO3cKd25DTxM-38" value="BasketsToWin,&lt;br&gt;BasketsToDuty" style="text;html=1;align=center;verticalAlign=middle;whiteSpace=wrap;rounded=0;" parent="1" vertex="1">
          <mxGeometry x="354" y="875" width="60" height="30" as="geometry" />
        </mxCell>
        <mxCell id="gEE5pIaVXO3cKd25DTxM-27" value="&lt;br style=&quot;border-color: var(--border-color);&quot;&gt;BasketsToWin=BasketsToDuty&lt;br style=&quot;border-color: var(--border-color);&quot;&gt;&lt;div style=&quot;border-color: var(--border-color);&quot;&gt;&lt;br style=&quot;border-color: var(--border-color);&quot;&gt;&lt;/div&gt;" style="rhombus;whiteSpace=wrap;html=1;" parent="1" vertex="1">
          <mxGeometry x="589" y="1110" width="170" height="170" as="geometry" />
        </mxCell>
        <mxCell id="gEE5pIaVXO3cKd25DTxM-28" value="BasketsToWin&amp;gt;BasketsToDuty" style="rhombus;whiteSpace=wrap;html=1;" parent="1" vertex="1">
          <mxGeometry x="299" y="940" width="170" height="170" as="geometry" />
        </mxCell>
        <mxCell id="gEE5pIaVXO3cKd25DTxM-29" value="Score=Score+3" style="rounded=0;whiteSpace=wrap;html=1;" parent="1" vertex="1">
          <mxGeometry x="180" y="1110" width="120" height="60" as="geometry" />
        </mxCell>
        <mxCell id="gEE5pIaVXO3cKd25DTxM-30" value="Score=Score+1" style="rounded=0;whiteSpace=wrap;html=1;" parent="1" vertex="1">
          <mxGeometry x="469" y="1280" width="120" height="60" as="geometry" />
        </mxCell>
        <mxCell id="gEE5pIaVXO3cKd25DTxM-39" value="" style="endArrow=classic;html=1;rounded=0;" parent="1" source="gEE5pIaVXO3cKd25DTxM-18" target="gEE5pIaVXO3cKd25DTxM-37" edge="1">
          <mxGeometry width="50" height="50" relative="1" as="geometry">
            <mxPoint x="350" y="960" as="sourcePoint" />
            <mxPoint x="400" y="910" as="targetPoint" />
          </mxGeometry>
        </mxCell>
        <mxCell id="gEE5pIaVXO3cKd25DTxM-40" value="" style="endArrow=classic;html=1;rounded=0;" parent="1" source="gEE5pIaVXO3cKd25DTxM-37" target="gEE5pIaVXO3cKd25DTxM-28" edge="1">
          <mxGeometry width="50" height="50" relative="1" as="geometry">
            <mxPoint x="350" y="960" as="sourcePoint" />
            <mxPoint x="400" y="910" as="targetPoint" />
          </mxGeometry>
        </mxCell>
        <mxCell id="gEE5pIaVXO3cKd25DTxM-41" value="" style="endArrow=classic;html=1;rounded=0;exitX=0;exitY=0.5;exitDx=0;exitDy=0;" parent="1" source="gEE5pIaVXO3cKd25DTxM-28" target="gEE5pIaVXO3cKd25DTxM-29" edge="1">
          <mxGeometry width="50" height="50" relative="1" as="geometry">
            <mxPoint x="350" y="1090" as="sourcePoint" />
            <mxPoint x="400" y="1040" as="targetPoint" />
            <Array as="points">
              <mxPoint x="240" y="1025" />
            </Array>
          </mxGeometry>
        </mxCell>
        <mxCell id="gEE5pIaVXO3cKd25DTxM-42" value="" style="endArrow=classic;html=1;rounded=0;exitX=1;exitY=0.5;exitDx=0;exitDy=0;entryX=0.5;entryY=0;entryDx=0;entryDy=0;" parent="1" source="gEE5pIaVXO3cKd25DTxM-28" target="gEE5pIaVXO3cKd25DTxM-27" edge="1">
          <mxGeometry width="50" height="50" relative="1" as="geometry">
            <mxPoint x="350" y="1090" as="sourcePoint" />
            <mxPoint x="400" y="1040" as="targetPoint" />
            <Array as="points">
              <mxPoint x="674" y="1025" />
            </Array>
          </mxGeometry>
        </mxCell>
        <mxCell id="gEE5pIaVXO3cKd25DTxM-43" value="" style="endArrow=classic;html=1;rounded=0;exitX=0;exitY=0.5;exitDx=0;exitDy=0;" parent="1" source="gEE5pIaVXO3cKd25DTxM-27" target="gEE5pIaVXO3cKd25DTxM-30" edge="1">
          <mxGeometry width="50" height="50" relative="1" as="geometry">
            <mxPoint x="490" y="1230" as="sourcePoint" />
            <mxPoint x="540" y="1180" as="targetPoint" />
            <Array as="points">
              <mxPoint x="530" y="1195" />
            </Array>
          </mxGeometry>
        </mxCell>
        <mxCell id="gEE5pIaVXO3cKd25DTxM-44" value="" style="ellipse;whiteSpace=wrap;html=1;aspect=fixed;" parent="1" vertex="1">
          <mxGeometry x="662" y="1360" width="24" height="24" as="geometry" />
        </mxCell>
        <mxCell id="gEE5pIaVXO3cKd25DTxM-45" value="" style="endArrow=classic;html=1;rounded=0;entryX=0;entryY=0.5;entryDx=0;entryDy=0;" parent="1" source="gEE5pIaVXO3cKd25DTxM-30" target="gEE5pIaVXO3cKd25DTxM-44" edge="1">
          <mxGeometry width="50" height="50" relative="1" as="geometry">
            <mxPoint x="490" y="1260" as="sourcePoint" />
            <mxPoint x="540" y="1210" as="targetPoint" />
            <Array as="points">
              <mxPoint x="530" y="1372" />
            </Array>
          </mxGeometry>
        </mxCell>
        <mxCell id="gEE5pIaVXO3cKd25DTxM-46" value="" style="endArrow=classic;html=1;rounded=0;exitX=1;exitY=0.5;exitDx=0;exitDy=0;entryX=1;entryY=0.5;entryDx=0;entryDy=0;" parent="1" source="gEE5pIaVXO3cKd25DTxM-27" target="gEE5pIaVXO3cKd25DTxM-44" edge="1">
          <mxGeometry width="50" height="50" relative="1" as="geometry">
            <mxPoint x="600" y="1260" as="sourcePoint" />
            <mxPoint x="650" y="1210" as="targetPoint" />
            <Array as="points">
              <mxPoint x="800" y="1195" />
              <mxPoint x="800" y="1372" />
            </Array>
          </mxGeometry>
        </mxCell>
        <mxCell id="gEE5pIaVXO3cKd25DTxM-47" value="" style="ellipse;whiteSpace=wrap;html=1;aspect=fixed;" parent="1" vertex="1">
          <mxGeometry x="373.5" y="1440" width="24" height="24" as="geometry" />
        </mxCell>
        <mxCell id="gEE5pIaVXO3cKd25DTxM-48" value="" style="endArrow=classic;html=1;rounded=0;exitX=0.5;exitY=1;exitDx=0;exitDy=0;entryX=1;entryY=0.5;entryDx=0;entryDy=0;" parent="1" source="gEE5pIaVXO3cKd25DTxM-44" target="gEE5pIaVXO3cKd25DTxM-47" edge="1">
          <mxGeometry width="50" height="50" relative="1" as="geometry">
            <mxPoint x="430" y="1290" as="sourcePoint" />
            <mxPoint x="480" y="1240" as="targetPoint" />
            <Array as="points">
              <mxPoint x="674" y="1452" />
              <mxPoint x="530" y="1452" />
            </Array>
          </mxGeometry>
        </mxCell>
        <mxCell id="gEE5pIaVXO3cKd25DTxM-49" value="" style="endArrow=classic;html=1;rounded=0;entryX=0;entryY=0.5;entryDx=0;entryDy=0;" parent="1" source="gEE5pIaVXO3cKd25DTxM-29" target="gEE5pIaVXO3cKd25DTxM-47" edge="1">
          <mxGeometry width="50" height="50" relative="1" as="geometry">
            <mxPoint x="430" y="1290" as="sourcePoint" />
            <mxPoint x="480" y="1240" as="targetPoint" />
            <Array as="points">
              <mxPoint x="240" y="1452" />
            </Array>
          </mxGeometry>
        </mxCell>
        <mxCell id="gEE5pIaVXO3cKd25DTxM-50" value="return&lt;br&gt;Score" style="strokeWidth=2;html=1;shape=mxgraph.flowchart.terminator;whiteSpace=wrap;" parent="1" vertex="1">
          <mxGeometry x="624" y="860" width="100" height="60" as="geometry" />
        </mxCell>
        <mxCell id="gEE5pIaVXO3cKd25DTxM-51" value="" style="endArrow=classic;html=1;rounded=0;" parent="1" source="gEE5pIaVXO3cKd25DTxM-18" target="gEE5pIaVXO3cKd25DTxM-50" edge="1">
          <mxGeometry width="50" height="50" relative="1" as="geometry">
            <mxPoint x="430" y="1000" as="sourcePoint" />
            <mxPoint x="480" y="950" as="targetPoint" />
            <Array as="points">
              <mxPoint x="674" y="770" />
            </Array>
          </mxGeometry>
        </mxCell>
        <mxCell id="gEE5pIaVXO3cKd25DTxM-52" value="" style="rounded=0;whiteSpace=wrap;html=1;fillColor=#000000;" parent="1" vertex="1">
          <mxGeometry x="310.5" y="1510" width="150" height="10" as="geometry" />
        </mxCell>
        <mxCell id="gEE5pIaVXO3cKd25DTxM-53" value="" style="endArrow=classic;html=1;rounded=0;exitX=0.5;exitY=1;exitDx=0;exitDy=0;" parent="1" source="gEE5pIaVXO3cKd25DTxM-47" target="gEE5pIaVXO3cKd25DTxM-52" edge="1">
          <mxGeometry width="50" height="50" relative="1" as="geometry">
            <mxPoint x="430" y="1530" as="sourcePoint" />
            <mxPoint x="480" y="1480" as="targetPoint" />
          </mxGeometry>
        </mxCell>
        <mxCell id="gEE5pIaVXO3cKd25DTxM-54" value="No&#39; 2" style="text;html=1;align=center;verticalAlign=middle;whiteSpace=wrap;rounded=0;" parent="1" vertex="1">
          <mxGeometry x="350" y="1540" width="60" height="30" as="geometry" />
        </mxCell>
        <mxCell id="gEE5pIaVXO3cKd25DTxM-55" value="start" style="strokeWidth=2;html=1;shape=mxgraph.flowchart.terminator;whiteSpace=wrap;" parent="1" vertex="1">
          <mxGeometry x="330" y="1580" width="100" height="60" as="geometry" />
        </mxCell>
        <mxCell id="gEE5pIaVXO3cKd25DTxM-56" value="NumbersToCalculate" style="shape=hexagon;perimeter=hexagonPerimeter2;whiteSpace=wrap;html=1;fixedSize=1;" parent="1" vertex="1">
          <mxGeometry x="320" y="1660" width="120" height="80" as="geometry" />
        </mxCell>
        <mxCell id="gEE5pIaVXO3cKd25DTxM-59" value="" style="shape=document;whiteSpace=wrap;html=1;boundedLbl=1;" parent="1" vertex="1">
          <mxGeometry x="320" y="1760" width="120" height="80" as="geometry" />
        </mxCell>
        <mxCell id="gEE5pIaVXO3cKd25DTxM-60" value="&quot;The average of the numbers up to 0 is &quot;+AverageNumbers(4)" style="text;html=1;align=center;verticalAlign=middle;whiteSpace=wrap;rounded=0;" parent="1" vertex="1">
          <mxGeometry x="352.5" y="1770" width="60" height="30" as="geometry" />
        </mxCell>
        <mxCell id="gEE5pIaVXO3cKd25DTxM-62" value="end" style="strokeWidth=2;html=1;shape=mxgraph.flowchart.terminator;whiteSpace=wrap;" parent="1" vertex="1">
          <mxGeometry x="330" y="1860" width="100" height="60" as="geometry" />
        </mxCell>
        <mxCell id="Q4D2PWDjNyIrt-zV9Ui2-1" value="" style="group" vertex="1" connectable="0" parent="1">
          <mxGeometry x="200" y="1940" width="813.25" height="930" as="geometry" />
        </mxCell>
        <mxCell id="gEE5pIaVXO3cKd25DTxM-63" value="NumbersToCalculate" style="strokeWidth=2;html=1;shape=mxgraph.flowchart.terminator;whiteSpace=wrap;fontSize=10;" parent="Q4D2PWDjNyIrt-zV9Ui2-1" vertex="1">
          <mxGeometry x="128.75" width="100" height="60" as="geometry" />
        </mxCell>
        <mxCell id="gEE5pIaVXO3cKd25DTxM-64" value="TableOfNumbers=[ ]" style="rounded=0;whiteSpace=wrap;html=1;" parent="Q4D2PWDjNyIrt-zV9Ui2-1" vertex="1">
          <mxGeometry x="117.25" y="80" width="120" height="60" as="geometry" />
        </mxCell>
        <mxCell id="gEE5pIaVXO3cKd25DTxM-65" value="AverageNumbers=0" style="rounded=0;whiteSpace=wrap;html=1;" parent="Q4D2PWDjNyIrt-zV9Ui2-1" vertex="1">
          <mxGeometry x="118.25" y="160" width="120" height="60" as="geometry" />
        </mxCell>
        <mxCell id="gEE5pIaVXO3cKd25DTxM-67" value="" style="verticalLabelPosition=bottom;verticalAlign=top;html=1;shape=mxgraph.flowchart.or;" parent="Q4D2PWDjNyIrt-zV9Ui2-1" vertex="1">
          <mxGeometry x="104.75" y="240" width="147" height="140" as="geometry" />
        </mxCell>
        <mxCell id="gEE5pIaVXO3cKd25DTxM-68" value="index" style="text;html=1;align=center;verticalAlign=middle;whiteSpace=wrap;rounded=0;" parent="Q4D2PWDjNyIrt-zV9Ui2-1" vertex="1">
          <mxGeometry x="148.75" y="250" width="60" height="30" as="geometry" />
        </mxCell>
        <mxCell id="gEE5pIaVXO3cKd25DTxM-70" value="0" style="text;html=1;align=center;verticalAlign=middle;whiteSpace=wrap;rounded=0;" parent="Q4D2PWDjNyIrt-zV9Ui2-1" vertex="1">
          <mxGeometry x="106.75" y="295" width="60" height="30" as="geometry" />
        </mxCell>
        <mxCell id="gEE5pIaVXO3cKd25DTxM-71" value="1" style="text;html=1;align=center;verticalAlign=middle;whiteSpace=wrap;rounded=0;" parent="Q4D2PWDjNyIrt-zV9Ui2-1" vertex="1">
          <mxGeometry x="148.75" y="340" width="60" height="30" as="geometry" />
        </mxCell>
        <mxCell id="gEE5pIaVXO3cKd25DTxM-72" value="Index&amp;lt;&lt;br style=&quot;font-size: 6px;&quot;&gt;NumbersToCalculate" style="text;html=1;align=center;verticalAlign=middle;whiteSpace=wrap;rounded=0;fontSize=6;" parent="Q4D2PWDjNyIrt-zV9Ui2-1" vertex="1">
          <mxGeometry x="190.75" y="295" width="60" height="30" as="geometry" />
        </mxCell>
        <mxCell id="gEE5pIaVXO3cKd25DTxM-73" value="" style="verticalLabelPosition=bottom;verticalAlign=top;html=1;shape=card;whiteSpace=wrap;size=20;arcSize=12;" parent="Q4D2PWDjNyIrt-zV9Ui2-1" vertex="1">
          <mxGeometry x="128.75" y="400" width="100" height="60" as="geometry" />
        </mxCell>
        <mxCell id="gEE5pIaVXO3cKd25DTxM-74" value="TableOfNumbers [Index]" style="text;html=1;align=center;verticalAlign=middle;whiteSpace=wrap;rounded=0;" parent="Q4D2PWDjNyIrt-zV9Ui2-1" vertex="1">
          <mxGeometry x="148.75" y="415" width="60" height="30" as="geometry" />
        </mxCell>
        <mxCell id="gEE5pIaVXO3cKd25DTxM-77" value="if (isNun(TableOfNumbers [Index]))" style="rhombus;whiteSpace=wrap;html=1;fontSize=8;" parent="Q4D2PWDjNyIrt-zV9Ui2-1" vertex="1">
          <mxGeometry x="120" y="480" width="114.5" height="110" as="geometry" />
        </mxCell>
        <mxCell id="gEE5pIaVXO3cKd25DTxM-78" value="Index--" style="rounded=0;whiteSpace=wrap;html=1;" parent="Q4D2PWDjNyIrt-zV9Ui2-1" vertex="1">
          <mxGeometry y="590" width="120" height="60" as="geometry" />
        </mxCell>
        <mxCell id="gEE5pIaVXO3cKd25DTxM-79" value="" style="ellipse;whiteSpace=wrap;html=1;aspect=fixed;" parent="Q4D2PWDjNyIrt-zV9Ui2-1" vertex="1">
          <mxGeometry x="163.75" y="670" width="24" height="24" as="geometry" />
        </mxCell>
        <mxCell id="gEE5pIaVXO3cKd25DTxM-80" value="" style="rounded=0;whiteSpace=wrap;html=1;fillColor=#000000;" parent="Q4D2PWDjNyIrt-zV9Ui2-1" vertex="1">
          <mxGeometry x="100.75" y="710" width="150" height="10" as="geometry" />
        </mxCell>
        <mxCell id="gEE5pIaVXO3cKd25DTxM-81" value="whileNewIndex&amp;lt;=Index &amp;amp;&amp;amp;&lt;br&gt;TableOfNumbers [NewIndex]!=0&lt;br&gt;&amp;nbsp;" style="ellipse;whiteSpace=wrap;html=1;aspect=fixed;" parent="Q4D2PWDjNyIrt-zV9Ui2-1" vertex="1">
          <mxGeometry x="343.25" y="460" width="140" height="140" as="geometry" />
        </mxCell>
        <mxCell id="gEE5pIaVXO3cKd25DTxM-82" value="return&lt;br&gt;AverageNumbers" style="strokeWidth=2;html=1;shape=mxgraph.flowchart.terminator;whiteSpace=wrap;" parent="Q4D2PWDjNyIrt-zV9Ui2-1" vertex="1">
          <mxGeometry x="635.25" y="840" width="100" height="60" as="geometry" />
        </mxCell>
        <mxCell id="gEE5pIaVXO3cKd25DTxM-83" value="NewIndex=0" style="rounded=0;whiteSpace=wrap;html=1;" parent="Q4D2PWDjNyIrt-zV9Ui2-1" vertex="1">
          <mxGeometry x="353.25" y="380" width="120" height="60" as="geometry" />
        </mxCell>
        <mxCell id="gEE5pIaVXO3cKd25DTxM-84" value="AverageNumbers=&lt;br&gt;AverageNumbers+&lt;br&gt;TableOfNumbers [NewIndex]" style="rounded=0;whiteSpace=wrap;html=1;" parent="Q4D2PWDjNyIrt-zV9Ui2-1" vertex="1">
          <mxGeometry x="353.25" y="620" width="120" height="60" as="geometry" />
        </mxCell>
        <mxCell id="gEE5pIaVXO3cKd25DTxM-87" value="NewIndex=NewIndex+1" style="rounded=0;whiteSpace=wrap;html=1;fontSize=11;" parent="Q4D2PWDjNyIrt-zV9Ui2-1" vertex="1">
          <mxGeometry x="353.25" y="700" width="120" height="60" as="geometry" />
        </mxCell>
        <mxCell id="gEE5pIaVXO3cKd25DTxM-88" value="if (NewIndex&amp;gt;1)" style="rhombus;whiteSpace=wrap;html=1;" parent="Q4D2PWDjNyIrt-zV9Ui2-1" vertex="1">
          <mxGeometry x="620.25" y="600" width="130" height="120" as="geometry" />
        </mxCell>
        <mxCell id="gEE5pIaVXO3cKd25DTxM-89" value="AverageNumbers=&lt;br&gt;AverageNumbers/&lt;br&gt;NewIndex--" style="rounded=0;whiteSpace=wrap;html=1;" parent="Q4D2PWDjNyIrt-zV9Ui2-1" vertex="1">
          <mxGeometry x="503.25" y="720" width="120" height="60" as="geometry" />
        </mxCell>
        <mxCell id="gEE5pIaVXO3cKd25DTxM-92" value="" style="rounded=0;whiteSpace=wrap;html=1;fillColor=#000000;" parent="Q4D2PWDjNyIrt-zV9Ui2-1" vertex="1">
          <mxGeometry x="333.25" y="800" width="160" height="10" as="geometry" />
        </mxCell>
        <mxCell id="gEE5pIaVXO3cKd25DTxM-95" style="edgeStyle=orthogonalEdgeStyle;rounded=0;orthogonalLoop=1;jettySize=auto;html=1;" parent="Q4D2PWDjNyIrt-zV9Ui2-1" source="gEE5pIaVXO3cKd25DTxM-94" target="gEE5pIaVXO3cKd25DTxM-82" edge="1">
          <mxGeometry relative="1" as="geometry" />
        </mxCell>
        <mxCell id="gEE5pIaVXO3cKd25DTxM-94" value="" style="ellipse;whiteSpace=wrap;html=1;aspect=fixed;" parent="Q4D2PWDjNyIrt-zV9Ui2-1" vertex="1">
          <mxGeometry x="674.25" y="800" width="22" height="22" as="geometry" />
        </mxCell>
        <mxCell id="gEE5pIaVXO3cKd25DTxM-101" value="" style="endArrow=classic;html=1;rounded=0;" parent="Q4D2PWDjNyIrt-zV9Ui2-1" source="gEE5pIaVXO3cKd25DTxM-63" target="gEE5pIaVXO3cKd25DTxM-64" edge="1">
          <mxGeometry width="50" height="50" relative="1" as="geometry">
            <mxPoint x="183.25" y="60" as="sourcePoint" />
            <mxPoint x="233.25" y="10" as="targetPoint" />
          </mxGeometry>
        </mxCell>
        <mxCell id="gEE5pIaVXO3cKd25DTxM-102" value="" style="endArrow=classic;html=1;rounded=0;" parent="Q4D2PWDjNyIrt-zV9Ui2-1" source="gEE5pIaVXO3cKd25DTxM-64" target="gEE5pIaVXO3cKd25DTxM-65" edge="1">
          <mxGeometry width="50" height="50" relative="1" as="geometry">
            <mxPoint x="183.25" y="60" as="sourcePoint" />
            <mxPoint x="233.25" y="10" as="targetPoint" />
          </mxGeometry>
        </mxCell>
        <mxCell id="gEE5pIaVXO3cKd25DTxM-103" value="" style="endArrow=classic;html=1;rounded=0;" parent="Q4D2PWDjNyIrt-zV9Ui2-1" source="gEE5pIaVXO3cKd25DTxM-65" target="gEE5pIaVXO3cKd25DTxM-67" edge="1">
          <mxGeometry width="50" height="50" relative="1" as="geometry">
            <mxPoint x="183.25" y="190" as="sourcePoint" />
            <mxPoint x="233.25" y="140" as="targetPoint" />
          </mxGeometry>
        </mxCell>
        <mxCell id="gEE5pIaVXO3cKd25DTxM-104" value="" style="endArrow=classic;html=1;rounded=0;" parent="Q4D2PWDjNyIrt-zV9Ui2-1" source="gEE5pIaVXO3cKd25DTxM-67" target="gEE5pIaVXO3cKd25DTxM-73" edge="1">
          <mxGeometry width="50" height="50" relative="1" as="geometry">
            <mxPoint x="183.25" y="390" as="sourcePoint" />
            <mxPoint x="233.25" y="340" as="targetPoint" />
          </mxGeometry>
        </mxCell>
        <mxCell id="gEE5pIaVXO3cKd25DTxM-105" value="" style="endArrow=classic;html=1;rounded=0;" parent="Q4D2PWDjNyIrt-zV9Ui2-1" source="gEE5pIaVXO3cKd25DTxM-73" target="gEE5pIaVXO3cKd25DTxM-77" edge="1">
          <mxGeometry width="50" height="50" relative="1" as="geometry">
            <mxPoint x="183.25" y="530" as="sourcePoint" />
            <mxPoint x="233.25" y="480" as="targetPoint" />
          </mxGeometry>
        </mxCell>
        <mxCell id="gEE5pIaVXO3cKd25DTxM-106" value="" style="endArrow=classic;html=1;rounded=0;" parent="Q4D2PWDjNyIrt-zV9Ui2-1" source="gEE5pIaVXO3cKd25DTxM-77" target="gEE5pIaVXO3cKd25DTxM-78" edge="1">
          <mxGeometry width="50" height="50" relative="1" as="geometry">
            <mxPoint x="183.25" y="530" as="sourcePoint" />
            <mxPoint x="233.25" y="480" as="targetPoint" />
            <Array as="points">
              <mxPoint x="60.25" y="535" />
            </Array>
          </mxGeometry>
        </mxCell>
        <mxCell id="gEE5pIaVXO3cKd25DTxM-107" value="" style="endArrow=classic;html=1;rounded=0;entryX=1;entryY=0.5;entryDx=0;entryDy=0;" parent="Q4D2PWDjNyIrt-zV9Ui2-1" source="gEE5pIaVXO3cKd25DTxM-77" target="gEE5pIaVXO3cKd25DTxM-79" edge="1">
          <mxGeometry width="50" height="50" relative="1" as="geometry">
            <mxPoint x="183.25" y="660" as="sourcePoint" />
            <mxPoint x="233.25" y="610" as="targetPoint" />
            <Array as="points">
              <mxPoint x="293.25" y="535" />
              <mxPoint x="293.25" y="682" />
            </Array>
          </mxGeometry>
        </mxCell>
        <mxCell id="gEE5pIaVXO3cKd25DTxM-108" value="" style="endArrow=classic;html=1;rounded=0;entryX=0;entryY=0.5;entryDx=0;entryDy=0;" parent="Q4D2PWDjNyIrt-zV9Ui2-1" source="gEE5pIaVXO3cKd25DTxM-78" target="gEE5pIaVXO3cKd25DTxM-79" edge="1">
          <mxGeometry width="50" height="50" relative="1" as="geometry">
            <mxPoint x="183.25" y="660" as="sourcePoint" />
            <mxPoint x="233.25" y="610" as="targetPoint" />
            <Array as="points">
              <mxPoint x="60.25" y="682" />
            </Array>
          </mxGeometry>
        </mxCell>
        <mxCell id="gEE5pIaVXO3cKd25DTxM-109" value="" style="endArrow=classic;html=1;rounded=0;exitX=0.5;exitY=1;exitDx=0;exitDy=0;" parent="Q4D2PWDjNyIrt-zV9Ui2-1" source="gEE5pIaVXO3cKd25DTxM-79" target="gEE5pIaVXO3cKd25DTxM-80" edge="1">
          <mxGeometry width="50" height="50" relative="1" as="geometry">
            <mxPoint x="183.25" y="660" as="sourcePoint" />
            <mxPoint x="233.25" y="610" as="targetPoint" />
          </mxGeometry>
        </mxCell>
        <mxCell id="gEE5pIaVXO3cKd25DTxM-111" value="" style="endArrow=classic;html=1;rounded=0;" parent="Q4D2PWDjNyIrt-zV9Ui2-1" source="gEE5pIaVXO3cKd25DTxM-67" target="gEE5pIaVXO3cKd25DTxM-83" edge="1">
          <mxGeometry width="50" height="50" relative="1" as="geometry">
            <mxPoint x="183.25" y="460" as="sourcePoint" />
            <mxPoint x="233.25" y="410" as="targetPoint" />
            <Array as="points">
              <mxPoint x="413.25" y="310" />
            </Array>
          </mxGeometry>
        </mxCell>
        <mxCell id="gEE5pIaVXO3cKd25DTxM-112" value="" style="endArrow=classic;html=1;rounded=0;" parent="Q4D2PWDjNyIrt-zV9Ui2-1" source="gEE5pIaVXO3cKd25DTxM-83" target="gEE5pIaVXO3cKd25DTxM-81" edge="1">
          <mxGeometry width="50" height="50" relative="1" as="geometry">
            <mxPoint x="183.25" y="460" as="sourcePoint" />
            <mxPoint x="233.25" y="410" as="targetPoint" />
          </mxGeometry>
        </mxCell>
        <mxCell id="gEE5pIaVXO3cKd25DTxM-113" value="" style="endArrow=classic;html=1;rounded=0;" parent="Q4D2PWDjNyIrt-zV9Ui2-1" source="gEE5pIaVXO3cKd25DTxM-81" target="gEE5pIaVXO3cKd25DTxM-84" edge="1">
          <mxGeometry width="50" height="50" relative="1" as="geometry">
            <mxPoint x="183.25" y="660" as="sourcePoint" />
            <mxPoint x="233.25" y="610" as="targetPoint" />
          </mxGeometry>
        </mxCell>
        <mxCell id="gEE5pIaVXO3cKd25DTxM-114" value="" style="endArrow=classic;html=1;rounded=0;" parent="Q4D2PWDjNyIrt-zV9Ui2-1" source="gEE5pIaVXO3cKd25DTxM-84" target="gEE5pIaVXO3cKd25DTxM-87" edge="1">
          <mxGeometry width="50" height="50" relative="1" as="geometry">
            <mxPoint x="183.25" y="660" as="sourcePoint" />
            <mxPoint x="233.25" y="610" as="targetPoint" />
          </mxGeometry>
        </mxCell>
        <mxCell id="gEE5pIaVXO3cKd25DTxM-115" value="" style="endArrow=classic;html=1;rounded=0;" parent="Q4D2PWDjNyIrt-zV9Ui2-1" source="gEE5pIaVXO3cKd25DTxM-87" target="gEE5pIaVXO3cKd25DTxM-92" edge="1">
          <mxGeometry width="50" height="50" relative="1" as="geometry">
            <mxPoint x="183.25" y="660" as="sourcePoint" />
            <mxPoint x="233.25" y="610" as="targetPoint" />
          </mxGeometry>
        </mxCell>
        <mxCell id="gEE5pIaVXO3cKd25DTxM-117" value="" style="endArrow=classic;html=1;rounded=0;entryX=0.5;entryY=0;entryDx=0;entryDy=0;" parent="Q4D2PWDjNyIrt-zV9Ui2-1" source="gEE5pIaVXO3cKd25DTxM-81" target="gEE5pIaVXO3cKd25DTxM-88" edge="1">
          <mxGeometry width="50" height="50" relative="1" as="geometry">
            <mxPoint x="463.25" y="660" as="sourcePoint" />
            <mxPoint x="513.25" y="610" as="targetPoint" />
            <Array as="points">
              <mxPoint x="685.25" y="530" />
            </Array>
          </mxGeometry>
        </mxCell>
        <mxCell id="gEE5pIaVXO3cKd25DTxM-118" value="" style="endArrow=classic;html=1;rounded=0;exitX=0;exitY=0.5;exitDx=0;exitDy=0;" parent="Q4D2PWDjNyIrt-zV9Ui2-1" source="gEE5pIaVXO3cKd25DTxM-88" target="gEE5pIaVXO3cKd25DTxM-89" edge="1">
          <mxGeometry width="50" height="50" relative="1" as="geometry">
            <mxPoint x="463.25" y="760" as="sourcePoint" />
            <mxPoint x="513.25" y="710" as="targetPoint" />
            <Array as="points">
              <mxPoint x="563.25" y="660" />
            </Array>
          </mxGeometry>
        </mxCell>
        <mxCell id="gEE5pIaVXO3cKd25DTxM-119" value="" style="endArrow=classic;html=1;rounded=0;exitX=1;exitY=0.5;exitDx=0;exitDy=0;entryX=1;entryY=0.5;entryDx=0;entryDy=0;" parent="Q4D2PWDjNyIrt-zV9Ui2-1" source="gEE5pIaVXO3cKd25DTxM-88" target="gEE5pIaVXO3cKd25DTxM-94" edge="1">
          <mxGeometry width="50" height="50" relative="1" as="geometry">
            <mxPoint x="463.25" y="760" as="sourcePoint" />
            <mxPoint x="513.25" y="710" as="targetPoint" />
            <Array as="points">
              <mxPoint x="813.25" y="660" />
              <mxPoint x="813.25" y="811" />
            </Array>
          </mxGeometry>
        </mxCell>
        <mxCell id="gEE5pIaVXO3cKd25DTxM-120" value="" style="endArrow=classic;html=1;rounded=0;entryX=0;entryY=0.5;entryDx=0;entryDy=0;" parent="Q4D2PWDjNyIrt-zV9Ui2-1" source="gEE5pIaVXO3cKd25DTxM-89" target="gEE5pIaVXO3cKd25DTxM-94" edge="1">
          <mxGeometry width="50" height="50" relative="1" as="geometry">
            <mxPoint x="503.25" y="760" as="sourcePoint" />
            <mxPoint x="553.25" y="710" as="targetPoint" />
            <Array as="points">
              <mxPoint x="563.25" y="810" />
            </Array>
          </mxGeometry>
        </mxCell>
        <mxCell id="Q4D2PWDjNyIrt-zV9Ui2-11" value="No&#39; 3" style="text;html=1;align=center;verticalAlign=middle;whiteSpace=wrap;rounded=0;" vertex="1" parent="Q4D2PWDjNyIrt-zV9Ui2-1">
          <mxGeometry x="145.75" y="830" width="60" height="30" as="geometry" />
        </mxCell>
        <mxCell id="Q4D2PWDjNyIrt-zV9Ui2-12" value="start" style="strokeWidth=2;html=1;shape=mxgraph.flowchart.terminator;whiteSpace=wrap;" vertex="1" parent="Q4D2PWDjNyIrt-zV9Ui2-1">
          <mxGeometry x="125.75" y="870" width="100" height="60" as="geometry" />
        </mxCell>
        <mxCell id="Q4D2PWDjNyIrt-zV9Ui2-3" value="" style="endArrow=classic;html=1;rounded=0;" edge="1" parent="1" source="gEE5pIaVXO3cKd25DTxM-55" target="gEE5pIaVXO3cKd25DTxM-56">
          <mxGeometry width="50" height="50" relative="1" as="geometry">
            <mxPoint x="480" y="1770" as="sourcePoint" />
            <mxPoint x="530" y="1720" as="targetPoint" />
          </mxGeometry>
        </mxCell>
        <mxCell id="Q4D2PWDjNyIrt-zV9Ui2-4" value="" style="endArrow=classic;html=1;rounded=0;" edge="1" parent="1" source="gEE5pIaVXO3cKd25DTxM-56" target="gEE5pIaVXO3cKd25DTxM-59">
          <mxGeometry width="50" height="50" relative="1" as="geometry">
            <mxPoint x="480" y="1770" as="sourcePoint" />
            <mxPoint x="530" y="1720" as="targetPoint" />
          </mxGeometry>
        </mxCell>
        <mxCell id="Q4D2PWDjNyIrt-zV9Ui2-10" value="" style="endArrow=classic;html=1;rounded=0;exitX=0.505;exitY=0.832;exitDx=0;exitDy=0;exitPerimeter=0;" edge="1" parent="1" source="gEE5pIaVXO3cKd25DTxM-59" target="gEE5pIaVXO3cKd25DTxM-62">
          <mxGeometry width="50" height="50" relative="1" as="geometry">
            <mxPoint x="480" y="1870" as="sourcePoint" />
            <mxPoint x="530" y="1820" as="targetPoint" />
          </mxGeometry>
        </mxCell>
        <mxCell id="Q4D2PWDjNyIrt-zV9Ui2-21" value="" style="endArrow=classic;html=1;rounded=0;" edge="1" parent="1" source="Q4D2PWDjNyIrt-zV9Ui2-12" target="Q4D2PWDjNyIrt-zV9Ui2-27">
          <mxGeometry width="50" height="50" relative="1" as="geometry">
            <mxPoint x="400" y="3000" as="sourcePoint" />
            <mxPoint x="374" y="2900" as="targetPoint" />
          </mxGeometry>
        </mxCell>
        <mxCell id="Q4D2PWDjNyIrt-zV9Ui2-26" value="" style="group" vertex="1" connectable="0" parent="1">
          <mxGeometry x="315.75" y="3050" width="121" height="560" as="geometry" />
        </mxCell>
        <mxCell id="Q4D2PWDjNyIrt-zV9Ui2-13" value="UniversalBank(Checks)" style="shape=hexagon;perimeter=hexagonPerimeter2;whiteSpace=wrap;html=1;fixedSize=1;fontSize=11;" vertex="1" parent="Q4D2PWDjNyIrt-zV9Ui2-26">
          <mxGeometry width="120" height="80" as="geometry" />
        </mxCell>
        <mxCell id="Q4D2PWDjNyIrt-zV9Ui2-14" value="" style="shape=document;whiteSpace=wrap;html=1;boundedLbl=1;" vertex="1" parent="Q4D2PWDjNyIrt-zV9Ui2-26">
          <mxGeometry y="100" width="120" height="80" as="geometry" />
        </mxCell>
        <mxCell id="Q4D2PWDjNyIrt-zV9Ui2-15" value="&quot;The number of checks is &quot;+ Ckecks[0]+&quot;.&quot;" style="text;html=1;align=center;verticalAlign=middle;whiteSpace=wrap;rounded=0;" vertex="1" parent="Q4D2PWDjNyIrt-zV9Ui2-26">
          <mxGeometry x="6" y="110" width="110" height="40" as="geometry" />
        </mxCell>
        <mxCell id="Q4D2PWDjNyIrt-zV9Ui2-16" value="&quot;The sum of checks is &quot;+Checks[1]+&quot;.&quot;" style="shape=document;whiteSpace=wrap;html=1;boundedLbl=1;" vertex="1" parent="Q4D2PWDjNyIrt-zV9Ui2-26">
          <mxGeometry y="200" width="120" height="80" as="geometry" />
        </mxCell>
        <mxCell id="Q4D2PWDjNyIrt-zV9Ui2-17" value="&quot;The sum of commissions is &quot;+Checks[2]+.&quot;.&quot;" style="shape=document;whiteSpace=wrap;html=1;boundedLbl=1;" vertex="1" parent="Q4D2PWDjNyIrt-zV9Ui2-26">
          <mxGeometry y="300" width="120" height="80" as="geometry" />
        </mxCell>
        <mxCell id="Q4D2PWDjNyIrt-zV9Ui2-18" value="&quot;The total amount of the checks, including fees, is &quot;+Checks[3]+&quot;.&quot;" style="shape=document;whiteSpace=wrap;html=1;boundedLbl=1;" vertex="1" parent="Q4D2PWDjNyIrt-zV9Ui2-26">
          <mxGeometry x="1" y="400" width="120" height="80" as="geometry" />
        </mxCell>
        <mxCell id="Q4D2PWDjNyIrt-zV9Ui2-19" value="end" style="strokeWidth=2;html=1;shape=mxgraph.flowchart.terminator;whiteSpace=wrap;" vertex="1" parent="Q4D2PWDjNyIrt-zV9Ui2-26">
          <mxGeometry x="10" y="500" width="100" height="60" as="geometry" />
        </mxCell>
        <mxCell id="Q4D2PWDjNyIrt-zV9Ui2-20" value="" style="endArrow=classic;html=1;rounded=0;exitX=0.503;exitY=0.829;exitDx=0;exitDy=0;exitPerimeter=0;" edge="1" parent="Q4D2PWDjNyIrt-zV9Ui2-26" source="Q4D2PWDjNyIrt-zV9Ui2-18" target="Q4D2PWDjNyIrt-zV9Ui2-19">
          <mxGeometry width="50" height="50" relative="1" as="geometry">
            <mxPoint x="86" y="510" as="sourcePoint" />
            <mxPoint x="136" y="460" as="targetPoint" />
          </mxGeometry>
        </mxCell>
        <mxCell id="Q4D2PWDjNyIrt-zV9Ui2-22" value="" style="endArrow=classic;html=1;rounded=0;" edge="1" parent="Q4D2PWDjNyIrt-zV9Ui2-26" source="Q4D2PWDjNyIrt-zV9Ui2-13" target="Q4D2PWDjNyIrt-zV9Ui2-14">
          <mxGeometry width="50" height="50" relative="1" as="geometry">
            <mxPoint x="86" y="110" as="sourcePoint" />
            <mxPoint x="136" y="60" as="targetPoint" />
          </mxGeometry>
        </mxCell>
        <mxCell id="Q4D2PWDjNyIrt-zV9Ui2-23" value="" style="endArrow=classic;html=1;rounded=0;exitX=0.511;exitY=0.816;exitDx=0;exitDy=0;exitPerimeter=0;" edge="1" parent="Q4D2PWDjNyIrt-zV9Ui2-26" source="Q4D2PWDjNyIrt-zV9Ui2-14" target="Q4D2PWDjNyIrt-zV9Ui2-16">
          <mxGeometry width="50" height="50" relative="1" as="geometry">
            <mxPoint x="66" y="170" as="sourcePoint" />
            <mxPoint x="136" y="130" as="targetPoint" />
          </mxGeometry>
        </mxCell>
        <mxCell id="Q4D2PWDjNyIrt-zV9Ui2-24" value="" style="endArrow=classic;html=1;rounded=0;exitX=0.511;exitY=0.826;exitDx=0;exitDy=0;exitPerimeter=0;" edge="1" parent="Q4D2PWDjNyIrt-zV9Ui2-26" source="Q4D2PWDjNyIrt-zV9Ui2-16" target="Q4D2PWDjNyIrt-zV9Ui2-17">
          <mxGeometry width="50" height="50" relative="1" as="geometry">
            <mxPoint x="86" y="310" as="sourcePoint" />
            <mxPoint x="136" y="260" as="targetPoint" />
          </mxGeometry>
        </mxCell>
        <mxCell id="Q4D2PWDjNyIrt-zV9Ui2-25" value="" style="endArrow=classic;html=1;rounded=0;exitX=0.515;exitY=0.83;exitDx=0;exitDy=0;exitPerimeter=0;" edge="1" parent="Q4D2PWDjNyIrt-zV9Ui2-26" source="Q4D2PWDjNyIrt-zV9Ui2-17" target="Q4D2PWDjNyIrt-zV9Ui2-18">
          <mxGeometry width="50" height="50" relative="1" as="geometry">
            <mxPoint x="86" y="480" as="sourcePoint" />
            <mxPoint x="136" y="430" as="targetPoint" />
          </mxGeometry>
        </mxCell>
        <mxCell id="Q4D2PWDjNyIrt-zV9Ui2-27" value="Checks = [ ]" style="rounded=0;whiteSpace=wrap;html=1;" vertex="1" parent="1">
          <mxGeometry x="315.75" y="2893" width="120" height="60" as="geometry" />
        </mxCell>
        <mxCell id="Q4D2PWDjNyIrt-zV9Ui2-28" value="Checks = [&quot;10&quot;,&quot;1000&quot;]" style="rounded=0;whiteSpace=wrap;html=1;" vertex="1" parent="1">
          <mxGeometry x="315.75" y="2970" width="120" height="60" as="geometry" />
        </mxCell>
        <mxCell id="Q4D2PWDjNyIrt-zV9Ui2-29" value="" style="endArrow=classic;html=1;rounded=0;" edge="1" parent="1" source="Q4D2PWDjNyIrt-zV9Ui2-27" target="Q4D2PWDjNyIrt-zV9Ui2-28">
          <mxGeometry width="50" height="50" relative="1" as="geometry">
            <mxPoint x="400" y="2990" as="sourcePoint" />
            <mxPoint x="450" y="2940" as="targetPoint" />
          </mxGeometry>
        </mxCell>
        <mxCell id="Q4D2PWDjNyIrt-zV9Ui2-30" value="" style="endArrow=classic;html=1;rounded=0;" edge="1" parent="1" source="Q4D2PWDjNyIrt-zV9Ui2-28" target="Q4D2PWDjNyIrt-zV9Ui2-13">
          <mxGeometry width="50" height="50" relative="1" as="geometry">
            <mxPoint x="400" y="2990" as="sourcePoint" />
            <mxPoint x="450" y="2940" as="targetPoint" />
          </mxGeometry>
        </mxCell>
        <mxCell id="Q4D2PWDjNyIrt-zV9Ui2-49" style="edgeStyle=orthogonalEdgeStyle;rounded=0;orthogonalLoop=1;jettySize=auto;html=1;" edge="1" parent="1" source="Q4D2PWDjNyIrt-zV9Ui2-31" target="Q4D2PWDjNyIrt-zV9Ui2-32">
          <mxGeometry relative="1" as="geometry" />
        </mxCell>
        <mxCell id="Q4D2PWDjNyIrt-zV9Ui2-31" value="start" style="strokeWidth=2;html=1;shape=mxgraph.flowchart.terminator;whiteSpace=wrap;" vertex="1" parent="1">
          <mxGeometry x="326.25" y="3630" width="100" height="60" as="geometry" />
        </mxCell>
        <mxCell id="Q4D2PWDjNyIrt-zV9Ui2-32" value="Commissions = Checks[0]*0.1" style="rounded=0;whiteSpace=wrap;html=1;" vertex="1" parent="1">
          <mxGeometry x="316" y="3710" width="120" height="60" as="geometry" />
        </mxCell>
        <mxCell id="Q4D2PWDjNyIrt-zV9Ui2-33" value="if (Checks[1]&amp;gt;500" style="rhombus;whiteSpace=wrap;html=1;" vertex="1" parent="1">
          <mxGeometry x="318.75" y="3790" width="114" height="120" as="geometry" />
        </mxCell>
        <mxCell id="Q4D2PWDjNyIrt-zV9Ui2-34" value="Commissions=Commissions+(500*0.01)+((Checks[1]-500)*0.015)" style="rounded=0;whiteSpace=wrap;html=1;fontSize=9;" vertex="1" parent="1">
          <mxGeometry x="200" y="3910" width="120" height="60" as="geometry" />
        </mxCell>
        <mxCell id="Q4D2PWDjNyIrt-zV9Ui2-35" value="Commissions=Commissions+(Checks[1]*0.01)" style="rounded=0;whiteSpace=wrap;html=1;fontSize=9;" vertex="1" parent="1">
          <mxGeometry x="432.75" y="3910" width="120" height="60" as="geometry" />
        </mxCell>
        <mxCell id="Q4D2PWDjNyIrt-zV9Ui2-36" value="" style="ellipse;whiteSpace=wrap;html=1;aspect=fixed;" vertex="1" parent="1">
          <mxGeometry x="363.38" y="3990" width="25.75" height="25.75" as="geometry" />
        </mxCell>
        <mxCell id="Q4D2PWDjNyIrt-zV9Ui2-37" value="Check[2]=Commissions" style="rounded=0;whiteSpace=wrap;html=1;fontSize=11;" vertex="1" parent="1">
          <mxGeometry x="316.26" y="4040" width="120" height="60" as="geometry" />
        </mxCell>
        <mxCell id="Q4D2PWDjNyIrt-zV9Ui2-38" value="Checks[3]=&lt;br style=&quot;font-size: 12px;&quot;&gt;Check[1]+Check[2]" style="rounded=0;whiteSpace=wrap;html=1;fontSize=12;" vertex="1" parent="1">
          <mxGeometry x="315.75" y="4120" width="120" height="60" as="geometry" />
        </mxCell>
        <mxCell id="Q4D2PWDjNyIrt-zV9Ui2-39" value="return Checks" style="strokeWidth=2;html=1;shape=mxgraph.flowchart.terminator;whiteSpace=wrap;" vertex="1" parent="1">
          <mxGeometry x="324" y="4200" width="100" height="60" as="geometry" />
        </mxCell>
        <mxCell id="Q4D2PWDjNyIrt-zV9Ui2-40" value="" style="endArrow=classic;html=1;rounded=0;entryX=0.5;entryY=0;entryDx=0;entryDy=0;" edge="1" parent="1" source="Q4D2PWDjNyIrt-zV9Ui2-32" target="Q4D2PWDjNyIrt-zV9Ui2-33">
          <mxGeometry width="50" height="50" relative="1" as="geometry">
            <mxPoint x="400" y="3760" as="sourcePoint" />
            <mxPoint x="450" y="3710" as="targetPoint" />
          </mxGeometry>
        </mxCell>
        <mxCell id="Q4D2PWDjNyIrt-zV9Ui2-41" value="" style="endArrow=classic;html=1;rounded=0;" edge="1" parent="1" target="Q4D2PWDjNyIrt-zV9Ui2-34">
          <mxGeometry width="50" height="50" relative="1" as="geometry">
            <mxPoint x="320" y="3850" as="sourcePoint" />
            <mxPoint x="450" y="3810" as="targetPoint" />
            <Array as="points">
              <mxPoint x="260" y="3850" />
            </Array>
          </mxGeometry>
        </mxCell>
        <mxCell id="Q4D2PWDjNyIrt-zV9Ui2-42" value="" style="endArrow=classic;html=1;rounded=0;" edge="1" parent="1" source="Q4D2PWDjNyIrt-zV9Ui2-33" target="Q4D2PWDjNyIrt-zV9Ui2-35">
          <mxGeometry width="50" height="50" relative="1" as="geometry">
            <mxPoint x="400" y="3870" as="sourcePoint" />
            <mxPoint x="450" y="3810" as="targetPoint" />
            <Array as="points">
              <mxPoint x="493" y="3850" />
            </Array>
          </mxGeometry>
        </mxCell>
        <mxCell id="Q4D2PWDjNyIrt-zV9Ui2-43" value="" style="endArrow=classic;html=1;rounded=0;entryX=0;entryY=0.5;entryDx=0;entryDy=0;" edge="1" parent="1" source="Q4D2PWDjNyIrt-zV9Ui2-34" target="Q4D2PWDjNyIrt-zV9Ui2-36">
          <mxGeometry width="50" height="50" relative="1" as="geometry">
            <mxPoint x="400" y="3990" as="sourcePoint" />
            <mxPoint x="450" y="3940" as="targetPoint" />
            <Array as="points">
              <mxPoint x="260" y="4003" />
            </Array>
          </mxGeometry>
        </mxCell>
        <mxCell id="Q4D2PWDjNyIrt-zV9Ui2-44" value="" style="endArrow=classic;html=1;rounded=0;entryX=1;entryY=0.5;entryDx=0;entryDy=0;" edge="1" parent="1" source="Q4D2PWDjNyIrt-zV9Ui2-35" target="Q4D2PWDjNyIrt-zV9Ui2-36">
          <mxGeometry width="50" height="50" relative="1" as="geometry">
            <mxPoint x="400" y="3990" as="sourcePoint" />
            <mxPoint x="450" y="3940" as="targetPoint" />
            <Array as="points">
              <mxPoint x="493" y="4003" />
            </Array>
          </mxGeometry>
        </mxCell>
        <mxCell id="Q4D2PWDjNyIrt-zV9Ui2-45" value="" style="endArrow=classic;html=1;rounded=0;exitX=0.5;exitY=1;exitDx=0;exitDy=0;" edge="1" parent="1" source="Q4D2PWDjNyIrt-zV9Ui2-36" target="Q4D2PWDjNyIrt-zV9Ui2-37">
          <mxGeometry width="50" height="50" relative="1" as="geometry">
            <mxPoint x="400" y="4020" as="sourcePoint" />
            <mxPoint x="450" y="3970" as="targetPoint" />
          </mxGeometry>
        </mxCell>
        <mxCell id="Q4D2PWDjNyIrt-zV9Ui2-46" value="" style="endArrow=classic;html=1;rounded=0;" edge="1" parent="1" source="Q4D2PWDjNyIrt-zV9Ui2-37" target="Q4D2PWDjNyIrt-zV9Ui2-38">
          <mxGeometry width="50" height="50" relative="1" as="geometry">
            <mxPoint x="400" y="4160" as="sourcePoint" />
            <mxPoint x="450" y="4110" as="targetPoint" />
          </mxGeometry>
        </mxCell>
        <mxCell id="Q4D2PWDjNyIrt-zV9Ui2-47" value="" style="endArrow=classic;html=1;rounded=0;" edge="1" parent="1" source="Q4D2PWDjNyIrt-zV9Ui2-38" target="Q4D2PWDjNyIrt-zV9Ui2-39">
          <mxGeometry width="50" height="50" relative="1" as="geometry">
            <mxPoint x="400" y="4160" as="sourcePoint" />
            <mxPoint x="450" y="4110" as="targetPoint" />
          </mxGeometry>
        </mxCell>
      </root>
    </mxGraphModel>
  </diagram>
</mxfile>
